<?xml version="1.0" standalone="no"?>
<!DOCTYPE svg PUBLIC "-//W3C//DTD SVG 20010904//EN"
 "http://www.w3.org/TR/2001/REC-SVG-20010904/DTD/svg10.dtd">
<svg version="1.0" xmlns="http://www.w3.org/2000/svg"
 width="50.000000pt" height="50.000000pt"
 preserveAspectRatio="xMidYMid meet">
<metadata>
Created by potrace 1.13, written by Peter Selinger 2001-2015
</metadata>
<g transform="translate(0.000000,50.000000) scale(0.100000,-0.100000)"
fill="#000000" stroke="none">
<path d="M195 491 c-112 -28 -189 -125 -189 -241 0 -98 48 -176 136 -221 104
-53 245 -20 309 73 l22 33 -29 -26 c-44 -40 -73 -52 -128 -53 -141 -1 -231
148 -166 274 63 123 245 129 322 12 27 -41 21 -15 -7 34 -52 89 -170 139 -270
115z"/>
<path d="M220 235 l0 -75 33 0 c18 0 38 5 45 12 15 15 16 55 2 63 -8 5 -7 11
0 20 7 8 9 23 5 35 -5 16 -15 20 -46 20 l-39 0 0 -75z m74 49 c9 -22 -1 -34
-30 -34 -19 0 -24 5 -24 25 0 20 5 25 24 25 13 0 27 -7 30 -16z m2 -69 c8 -20
-13 -45 -37 -45 -14 0 -19 7 -19 30 0 25 4 30 25 30 14 0 28 -7 31 -15z"/>
<path d="M342 243 c19 -62 38 -101 38 -77 0 5 9 39 19 77 11 37 16 67 12 67
-4 0 -14 -25 -21 -55 -15 -62 -21 -61 -40 8 -7 26 -16 47 -20 47 -4 0 1 -30
12 -67z"/>
</g>
</svg>
